<?xml version="1.0" encoding="utf-8"?>
<!-- Generator: Adobe Illustrator 16.0.3, SVG Export Plug-In . SVG Version: 6.00 Build 0)  -->
<svg version="1.2" baseProfile="tiny" id="svg-user-control"
	 xmlns="http://www.w3.org/2000/svg" xmlns:xlink="http://www.w3.org/1999/xlink" x="0px" y="0px" width="880px" height="380px"
	 viewBox="-845.515 105.199 880 380" xml:space="preserve">
<g>
	<path fill="none" stroke="#CCCCCC" stroke-width="6" stroke-miterlimit="10" d="M-592.516,220.795
		c0,6.627-4.521,11.705-10.715,11.705h-177.57c-6.193,0-11.715-5.078-11.715-11.705v-56c0-6.627,5.521-12.295,11.715-12.295h177.57
		c6.194,0,10.715,5.666,10.715,12.295V220.795z"/>
	<g>
		<text transform="matrix(0.9346 0 0 1 -745.1072 202.1016)" font-family="'ArialMT'" font-size="36">start</text>
		<g>
			<path fill="#CCCCCC" d="M-666.186,205c-1.351-2.777-1.351-5.557,0-8.332c1.35-2.779,1.35-5.557,0-8.336
				c-1.351-2.775-1.351-5.553,0-8.332h5.25c-1.351,2.779-1.351,5.557,0,8.332c1.35,2.779,1.35,5.557,0,8.336
				c-1.351,2.775-1.351,5.555,0,8.332H-666.186z"/>
			<path fill="#CCCCCC" d="M-656.186,205c-1.351-2.777-1.351-5.557,0-8.332c1.35-2.779,1.35-5.557,0-8.336
				c-1.351-2.775-1.351-5.553,0-8.332h5.25c-1.351,2.779-1.351,5.557,0,8.332c1.35,2.779,1.35,5.557,0,8.336
				c-1.351,2.775-1.351,5.555,0,8.332H-656.186z"/>
			<path fill="#CCCCCC" d="M-646.186,205c-1.351-2.777-1.351-5.557,0-8.332c1.35-2.779,1.35-5.557,0-8.336
				c-1.351-2.775-1.351-5.553,0-8.332h5.25c-1.351,2.779-1.351,5.557,0,8.332c1.35,2.779,1.35,5.557,0,8.336
				c-1.351,2.775-1.351,5.555,0,8.332H-646.186z"/>
		</g>
	</g>
</g>
<path fill="none" stroke="#CCCCCC" stroke-width="6" stroke-miterlimit="10" d="M-334.063,220.796
	c0,6.627-4.521,11.704-10.715,11.704h-177.57c-6.193,0-11.715-5.077-11.715-11.704v-56c0-6.627,5.521-12.296,11.715-12.296h177.57
	c6.192,0,10.715,5.668,10.715,12.296V220.796z"/>
<text transform="matrix(0.9346 0 0 1 -465.8601 202.1016)" font-family="'ArialMT'" font-size="36">stop</text>
<g>
	<path fill="none" stroke="#CCCCCC" stroke-width="6" stroke-miterlimit="10" d="M-458.517,434.699c0,6.628-5.373,12-12,12h-190
		c-6.627,0-12-5.372-12-12v-56c0-6.627,5.373-12,12-12h190c6.627,0,12,5.373,12,12V434.699z"/>
	<g>
		
			<text id="svg-speed-text" transform="matrix(1 0 0 1 -594.5496 416.3008)" fill="#333333" font-family="'ArialMT'" font-size="36">0</text>
		<text transform="matrix(1 0 0 1 -567.4832 411.5)" fill="#333333" font-family="'ArialMT'" font-size="18">rpm</text>
	</g>
</g>
<g id="svg-button-increase-speed">
	<path fill="none" stroke="#CCCCCC" stroke-width="6" stroke-miterlimit="10" d="M-339.5,434.021c0,7.164-4.569,12.678-10.82,12.678
		h-77.358c-6.252,0-11.821-5.514-11.821-12.678v-54.054c0-7.165,5.568-13.269,11.821-13.269h77.358
		c6.251,0,10.82,6.104,10.82,13.269V434.021z"/>
	<polygon id="svg-button-decrease-speed-triangle" fill="#333333" points="-407.5,380.495 -407.5,433.495 -371.558,406.995 	"/>
</g>
<g id="svg-button-decrease-speed">
	<path fill="none" stroke="#CCCCCC" stroke-width="6" stroke-miterlimit="10" d="M-792.516,379.967
		c0-7.164,5.569-13.269,11.82-13.269h77.359c6.252,0,10.819,6.104,10.819,13.269v54.055c0,7.164-4.567,12.679-10.819,12.679h-77.359
		c-6.251,0-11.82-5.515-11.82-12.679V379.967z"/>
	<polygon id="svg-button-increase-speed-triangle" fill="#333333" points="-724.516,433.494 -724.516,380.494 -760.457,406.994 	"/>
</g>
<g>
	<g>
		<path fill="none" d="M-37.063,397.291c0,6.627-5.023,12.204-11.836,12.204h-195.328c-6.813,0-12.836-5.577-12.836-12.204v-56
			c0-6.627,6.023-11.796,12.836-11.796h195.328c6.813,0,11.836,5.168,11.836,11.796V397.291z"/>
		<g>
			<circle id="svg-light-running" fill="#00C846" stroke="#CCCCCC" stroke-width="3" cx="-227.563" cy="369.995" r="25"/>
			<g>
				<polygon points="-233.423,353.513 -242.977,355.604 -239.561,359.256 -236.208,362.837 				"/>
				<path d="M-216.648,355.944l-2.661,3.002c2.872,2.396,4.715,5.989,4.715,10.015c0,7.197-5.855,13.055-13.055,13.055
					c-7.197,0-13.054-5.885-13.054-13.083c0-3.7,1.557-7.438,4.04-9.438h-1.4v-3.684c-4,3.128-6.433,7.856-6.433,13.148
					c0,9.403,7.547,17.055,16.949,17.055c9.404,0,17.004-7.65,17.004-17.055C-210.542,363.747-212.948,359.074-216.648,355.944z"/>
			</g>
		</g>
		
			<text transform="matrix(0.9346 0 0 1 -174.8894 377.9561)" fill="#333333" stroke="#333333" stroke-miterlimit="10" font-family="'ArialMT'" font-size="36">running</text>
	</g>
	<g>
		<path fill="none" d="M-37.063,297.791c0,6.627-5.023,11.704-11.836,11.704h-195.328c-6.813,0-12.836-5.077-12.836-11.704v-56
			c0-6.627,6.023-12.296,12.836-12.296h195.328c6.813,0,11.836,5.668,11.836,12.296V297.791z"/>
		<g id="svg-button-power">
			<circle id="svg-light-power" fill="#CC3300" stroke="#CCCCCC" stroke-width="6" cx="-227.563" cy="269.995" r="25"/>
			<g>
				<g>
					<path d="M-219.063,255.71v4.799c3,2.395,4.719,6.059,4.719,10.164c0,7.197-5.938,13.055-13.137,13.055
						s-12.931-5.855-12.931-13.055c0-4.693,2.349-8.805,6.349-11.104v-4.512c-6,2.639-10.39,8.642-10.39,15.616
						c0,9.403,7.567,17.055,16.972,17.055s17.178-7.65,17.178-17.055C-210.303,264.228-214.063,258.609-219.063,255.71z"/>
					<rect x="-229.063" y="252.495" width="5" height="20"/>
				</g>
			</g>
		</g>
		
			<text transform="matrix(0.9346 0 0 1 -174.8894 278.4561)" fill="#333333" stroke="#333333" stroke-miterlimit="10" font-family="'ArialMT'" font-size="36">power</text>
	</g>
	<g>
		<g>
			<path fill="none" stroke="#CCCCCC" stroke-width="6" stroke-miterlimit="10" d="M-27.248,152.5h-132.314
				c0,5.428-5.82,9.771-13,9.771h-57.416c-7.181,0-13-4.343-13-9.771h-22.899c-5.9,0-11.185,5.179-11.185,10.729v273.826
				c0,5.548,5.284,9.645,11.185,9.645h238.629c5.901,0,10.187-4.096,10.187-9.645V163.229
				C-17.063,157.679-21.347,152.5-27.248,152.5z"/>
		</g>
		<text transform="matrix(0.8941 0 0 1 -223.0496 151.7236)" font-family="'ArialMT'" font-size="25.0878">State</text>
	</g>
</g>
<path fill="none" stroke="#CCCCCC" stroke-width="10" stroke-miterlimit="10" d="M13.984,464.699c0,6.627-5.373,12-12,12h-815
	c-6.627,0-12-5.373-12-12v-339c0-6.627,5.373-12,12-12h815c6.627,0,12,5.373,12,12V464.699z"/>
<g>
	<path fill="none" stroke="#CCCCCC" stroke-width="6" stroke-miterlimit="10" d="M-592.516,316.022
		c0,6.627-4.521,11.705-10.715,11.705h-177.57c-6.193,0-11.715-5.078-11.715-11.705v-56c0-6.627,5.521-12.295,11.715-12.295h177.57
		c6.194,0,10.715,5.666,10.715,12.295V316.022z"/>
	<g>
		<text transform="matrix(0.9346 0 0 1 -745.1072 297.3291)" font-family="'ArialMT'" font-size="36">start</text>
	</g>
</g>
</svg>
